<svg width="101" height="101" viewBox="0 0 101 101" fill="none" xmlns="http://www.w3.org/2000/svg">
<g clip-path="url(#clip0_3150_121)">
<path d="M28.4167 50.5C28.4322 55.1178 29.0106 59.7165 30.1389 64.1944H48.1389V37.8611H29.8889C28.9287 42.006 28.4348 46.2453 28.4167 50.5Z" fill="#21A038"/>
<path d="M52.8611 64.2222H70.8611C72.0385 59.7411 72.6635 55.1328 72.7222 50.5C72.7131 46.2464 72.2287 42.0071 71.2778 37.8611H52.8611V64.2222Z" fill="#21A038"/>
<path d="M92.5 36.0833C90.8207 36.8539 89.0456 37.3957 87.2222 37.6944H86.6111C84.7058 37.9892 82.7664 37.9892 80.8611 37.6944H75.8611C76.8044 41.8987 77.2979 46.1914 77.3333 50.5C77.319 55.1096 76.788 59.7032 75.75 64.1944H86.8611C86.2134 65.9232 85.4429 67.6034 84.5555 69.2222H74.3889C72.4876 75.1744 69.6766 80.7965 66.0556 85.8889C63.3835 87.0534 60.5878 87.9108 57.7222 88.4444C62.8541 82.8681 66.8038 76.3104 69.3333 69.1667H52.8889V89.0278H48.1944V69.1389H31.6667C34.1928 76.2925 38.1427 82.8599 43.2778 88.4444C40.4713 87.9166 37.7322 87.0781 35.1111 85.9444C31.4773 80.8094 28.6658 75.1396 26.7778 69.1389H16.5556C15.6682 67.5201 14.8977 65.8398 14.25 64.1111H25.3611C24.32 59.648 23.7796 55.0828 23.75 50.5C23.7515 46.252 24.1984 42.0159 25.0833 37.8611H13.7222C14.3064 36.1375 15.0118 34.4573 15.8333 32.8333H26.4167C28.4025 26.2196 31.4821 19.9851 35.5278 14.3889C38.0933 13.3259 40.7662 12.5435 43.5 12.0556C37.9741 17.9862 33.8037 25.0475 31.2778 32.75H48.1944V11.6111H52.8889V32.8333H69.8056V32.4722C66.0739 29.0171 63.741 24.3118 63.25 19.25C61.5892 16.7451 59.7315 14.3765 57.6944 12.1667C59.6381 12.5412 61.5509 13.0612 63.4167 13.7222C63.716 11.9381 64.2484 10.2011 65 8.55556C55.4619 5.25753 45.0874 5.29106 35.5708 8.65067C26.0542 12.0103 17.958 18.4974 12.6044 27.0526C7.25086 35.6078 4.95631 45.7255 6.09554 55.7532C7.23476 65.7808 11.7404 75.1259 18.8767 82.2622C26.0129 89.3984 35.358 93.9041 45.3857 95.0434C55.4134 96.1826 65.5311 93.888 74.0863 88.5344C82.6414 83.1809 89.1286 75.0847 92.4882 65.5681C95.8478 56.0515 95.8814 45.677 92.5833 36.1389L92.5 36.0833Z" fill="#21A038"/>
<path fill-rule="evenodd" clip-rule="evenodd" d="M97.7222 17.1667C97.7222 24.8373 91.504 31.0556 83.8333 31.0556C76.1627 31.0556 69.9445 24.8373 69.9445 17.1667C69.9445 9.49605 76.1627 3.27778 83.8333 3.27778C91.504 3.27778 97.7222 9.49605 97.7222 17.1667ZM86.2825 13.7958L83.8333 8.83333L81.3842 13.7958L75.9079 14.5915L79.8706 18.4542L78.9351 23.9085L83.8333 21.3333L88.7316 23.9085L87.7961 18.4542L91.7588 14.5915L86.2825 13.7958Z" fill="#21A038"/>
</g>
<defs>
<clipPath id="clip0_3150_121">
<rect width="100" height="100" fill="white" transform="translate(0.5 0.5)"/>
</clipPath>
</defs>
</svg>
