<svg width="101" height="101" viewBox="0 0 101 101" fill="none" xmlns="http://www.w3.org/2000/svg">
<path fill-rule="evenodd" clip-rule="evenodd" d="M71.3128 7.02004C71.6498 6.47887 72.1397 6.04973 72.7205 5.78687C73.3013 5.52401 73.947 5.43923 74.576 5.54323L91.1563 8.30984C91.9994 8.45045 92.7521 8.92001 93.2491 9.61533C93.7461 10.3106 93.9467 11.1748 93.8069 12.018L91.0467 28.6048C90.9414 29.2335 90.652 29.817 90.2152 30.2813C89.7784 30.7457 89.2138 31.0701 88.5926 31.2137C87.9715 31.3572 87.3217 31.3135 86.7254 31.0878C86.1292 30.8622 85.6132 30.4649 85.2426 29.9462L80.767 23.6907L57.7184 38.4201C56.7355 39.0491 55.5584 39.3015 54.404 39.1308C53.2497 38.9602 52.1959 38.3779 51.4371 37.4915L38.5843 22.4653L14.5489 34.8151C13.4081 35.4018 12.081 35.5112 10.8595 35.1194C9.63794 34.7275 8.62212 33.8665 8.03546 32.7257C7.44881 31.5849 7.33936 30.2577 7.73122 29.0362C8.12307 27.8147 8.98411 26.7989 10.1249 26.2122L37.5653 12.1083C38.5341 11.6106 39.6425 11.4544 40.7111 11.6651C41.7797 11.8758 42.7459 12.4409 43.4533 13.2691L56.0546 28.005L75.1435 15.8036L71.4225 10.5992C71.0525 10.0803 70.8447 9.46329 70.8252 8.82625C70.8056 8.18922 70.9754 7.56069 71.3128 7.02004ZM29.0978 38.6845L10.3829 49.3898C9.64356 49.8121 9.02881 50.4222 8.60078 51.1582C8.17274 51.8942 7.94659 52.7302 7.94518 53.5817V90.6633C7.94518 93.3332 10.112 95.5 12.7819 95.5H29.0978V38.6845ZM37.1591 95.5H60.8139V51.5696L50.1795 56.8835L39.5516 38.2847C39.0149 37.3388 38.1739 36.6024 37.1655 36.1952L37.1591 95.5ZM86.9452 95.5H68.8751V47.539L84.7848 39.5809C85.5222 39.2128 86.3414 39.0392 87.1647 39.0766C87.9881 39.114 88.7882 39.3612 89.4892 39.7947C90.1902 40.2282 90.7687 40.8337 91.17 41.5536C91.5712 42.2735 91.7819 43.084 91.7819 43.9082V90.6633C91.7819 91.9461 91.2723 93.1763 90.3653 94.0834C89.4582 94.9904 88.228 95.5 86.9452 95.5Z" fill="#21A038"/>
</svg>
