<svg width="101" height="101" viewBox="0 0 101 101" fill="none" xmlns="http://www.w3.org/2000/svg">
<path d="M92.1667 34.5083V34.8125C92.1667 38.3958 92.1667 40.1917 91.3042 41.6583C90.4417 43.125 88.8708 43.9958 85.7375 45.7417L82.4333 47.575C84.7084 39.875 85.4708 31.6 85.75 24.525L85.7917 23.6042L85.8 23.3875C88.5125 24.3292 90.0375 25.0333 90.9875 26.35C92.1667 27.9875 92.1667 30.1625 92.1667 34.5083ZM8.83334 34.5083V34.8125C8.83334 38.3958 8.83334 40.1917 9.69584 41.6583C10.5583 43.125 12.1292 43.9958 15.2625 45.7417L18.5708 47.575C16.2917 39.875 15.5292 31.6 15.25 24.525L15.2083 23.6042L15.2042 23.3875C12.4875 24.3292 10.9625 25.0333 10.0125 26.35C8.83334 27.9875 8.83334 30.1667 8.83334 34.5083Z" fill="#21A038"/>
<path fill-rule="evenodd" clip-rule="evenodd" d="M68.7375 10.2792C62.7091 9.29112 56.6088 8.8075 50.5 8.83332C43.0708 8.83332 36.9458 9.48748 32.2625 10.2792C27.5167 11.0792 25.1458 11.4792 23.1625 13.9208C21.1833 16.3625 21.2875 19 21.4958 24.275C22.2167 42.3917 26.125 65.025 47.375 67.025V81.75H41.4167C40.4538 81.7506 39.5208 82.0846 38.7764 82.6954C38.032 83.3061 37.5221 84.1558 37.3333 85.1L36.5417 89.0417H25.5C24.6712 89.0417 23.8764 89.3709 23.2903 89.9569C22.7043 90.543 22.375 91.3379 22.375 92.1667C22.375 92.9955 22.7043 93.7903 23.2903 94.3764C23.8764 94.9624 24.6712 95.2917 25.5 95.2917H75.5C76.3288 95.2917 77.1237 94.9624 77.7097 94.3764C78.2958 93.7903 78.625 92.9955 78.625 92.1667C78.625 91.3379 78.2958 90.543 77.7097 89.9569C77.1237 89.3709 76.3288 89.0417 75.5 89.0417H64.4583L63.6667 85.1C63.478 84.1558 62.968 83.3061 62.2236 82.6954C61.4792 82.0846 60.5462 81.7506 59.5833 81.75H53.625V67.025C74.875 65.025 78.7875 42.3958 79.5042 24.275C79.7125 19 79.8209 16.3583 77.8375 13.9208C75.8542 11.4792 73.4833 11.0792 68.7375 10.2792ZM53.7792 24.6958C54.3503 24.9324 54.8384 25.333 55.1818 25.8469C55.5252 26.3609 55.7084 26.9652 55.7083 27.5833V44.25C55.7083 45.0788 55.3791 45.8736 54.7931 46.4597C54.207 47.0457 53.4121 47.375 52.5833 47.375C51.7545 47.375 50.9597 47.0457 50.3736 46.4597C49.7876 45.8736 49.4583 45.0788 49.4583 44.25V35.125L48.5417 36.0417C48.2556 36.3487 47.9106 36.5949 47.5273 36.7657C47.1439 36.9365 46.7301 37.0284 46.3105 37.0358C45.8909 37.0432 45.4741 36.966 45.085 36.8088C44.6959 36.6517 44.3424 36.4177 44.0457 36.121C43.7489 35.8242 43.515 35.4708 43.3578 35.0816C43.2007 34.6925 43.1235 34.2757 43.1309 33.8561C43.1383 33.4366 43.2301 33.0227 43.4009 32.6394C43.5717 32.2561 43.818 31.9111 44.125 31.625L50.375 25.375C50.8117 24.9379 51.3682 24.6402 51.9741 24.5193C52.58 24.3984 53.2082 24.4598 53.7792 24.6958Z" fill="#21A038"/>
</svg>
