<svg width="101" height="101" viewBox="0 0 101 101" fill="none" xmlns="http://www.w3.org/2000/svg">
<path d="M50.5 6.16406C47.1211 6.16406 43.7227 6.55078 41.1055 7.27344C38.4883 7.99414 36.8086 9.15625 36.457 9.88086C30.793 21.2031 30.4219 35.3828 30.4023 44.8359H70.5977C70.5781 35.3828 70.207 21.2031 64.543 9.88086C64.1914 9.15625 62.5117 7.99414 59.8945 7.27344C57.2773 6.55078 53.8789 6.16406 50.5 6.16406ZM9.875 33.1172V36.6328H19.25V33.1172H9.875ZM81.75 33.1172V36.6328H91.125V33.1172H81.75ZM14.3672 40.3438V53.7812L20.4609 57.8438C20.7734 56.6719 21.2812 55.5781 21.8867 54.582L17.8828 51.9063V40.3438H14.3672ZM83.1172 40.3438V51.9063L79.1133 54.582C79.7188 55.5781 80.2266 56.6719 80.5391 57.8438L86.6328 53.7812V40.3438H83.1172ZM46.0078 48.3516V51.0859H54.9922V48.3516H46.0078ZM26.3008 54.6016C25.0898 55.9492 23.9766 57.8047 23.7227 59.3867C23.4297 61.0859 23.6836 62.3359 25.9492 63.5859H75.0508C77.3164 62.3359 77.5703 61.0859 77.2773 59.3867C77.0234 57.8047 75.9102 55.9492 74.6992 54.6016H26.3008ZM48.7422 67.1016V73.3516L25.0703 79.2695L25.9297 82.668L48.7422 76.9648V82.5312C49.3086 82.4141 49.8945 82.3359 50.5 82.3359C51.1055 82.3359 51.6914 82.4141 52.2578 82.5312V76.9648L75.0703 82.668L75.9297 79.2695L52.2578 73.3516V67.1016H48.7422ZM25.5 85.8516C23 85.8516 21.0078 87.8438 21.0078 90.3438C21.0078 92.8438 23 94.8359 25.5 94.8359C28 94.8359 29.9922 92.8438 29.9922 90.3438C29.9922 87.8438 28 85.8516 25.5 85.8516ZM50.5 85.8516C48 85.8516 46.0078 87.8438 46.0078 90.3438C46.0078 92.8438 48 94.8359 50.5 94.8359C53 94.8359 54.9922 92.8438 54.9922 90.3438C54.9922 87.8438 53 85.8516 50.5 85.8516ZM75.5 85.8516C73 85.8516 71.0078 87.8438 71.0078 90.3438C71.0078 92.8438 73 94.8359 75.5 94.8359C78 94.8359 79.9922 92.8438 79.9922 90.3438C79.9922 87.8438 78 85.8516 75.5 85.8516Z" fill="#21A038"/>
</svg>
